<?xml version="1.0" encoding="utf-8"?>
<!-- Generator: Adobe Illustrator 24.0.1, SVG Export Plug-In . SVG Version: 6.00 Build 0)  -->
<svg version="1.1" id="Layer_1" xmlns="http://www.w3.org/2000/svg" xmlns:xlink="http://www.w3.org/1999/xlink" x="0px" y="0px"
	 viewBox="0 0 24 24" style="enable-background:new 0 0 24 24;" xml:space="preserve">
<path d="M12.04,15.2L12.04,15.2c-0.24,0-0.44-0.19-0.44-0.44V4.85c0-0.24,0.19-0.44,0.44-0.44h0c0.24,0,0.44,0.19,0.44,0.44v9.92
	C12.48,15.01,12.28,15.2,12.04,15.2z"/>
<path d="M12.32,15.87L12.32,15.87c-0.15,0.15-0.4,0.15-0.55,0l-3.94-3.94c-0.15-0.15-0.15-0.4,0-0.55l0,0c0.15-0.15,0.4-0.15,0.55,0
	l3.94,3.94C12.47,15.47,12.47,15.71,12.32,15.87z"/>
<path d="M11.89,15.79L11.89,15.79c-0.15-0.15-0.15-0.4,0-0.55l3.79-3.79c0.15-0.15,0.4-0.15,0.55,0v0c0.15,0.15,0.15,0.4,0,0.55
	l-3.79,3.79C12.29,15.95,12.04,15.95,11.89,15.79z"/>
<path d="M4.51,19.47L4.51,19.47c0-0.24,0.19-0.44,0.44-0.44h14.2c0.24,0,0.44,0.19,0.44,0.44v0c0,0.24-0.19,0.44-0.44,0.44H4.94
	C4.7,19.91,4.51,19.71,4.51,19.47z"/>
</svg>
