<?xml version="1.0" encoding="utf-8"?>
<!-- Generator: Adobe Illustrator 24.0.1, SVG Export Plug-In . SVG Version: 6.00 Build 0)  -->
<svg version="1.1" id="Layer_1" xmlns="http://www.w3.org/2000/svg" xmlns:xlink="http://www.w3.org/1999/xlink" x="0px" y="0px"
	 viewBox="0 0 24 24" style="enable-background:new 0 0 24 24;" xml:space="preserve">
<style type="text/css">
	.st0{fill:none;stroke:#000000;stroke-miterlimit:10;}
</style>
<path class="st0" d="M8.6,16.7c0.1,0.1,0.1,0.1,0.1,0.1c0.3,0.3,0.7,0.7,0.9,1.1c0.5,0.4,1.4,0.7,2.1,0.8c1.8,0.3,2.6-0.9,3.5-2.2
	c0.3-0.4,0.7-0.7,1.1-1c-0.5-1.3-1.9-2.3-3.5-2.3h-1.7c-1.6,0-2.9,0.9-3.5,2.2C8.1,15.7,8.4,16.1,8.6,16.7z"/>
<ellipse class="st0" cx="12" cy="10.5" rx="2" ry="2"/>
<image style="overflow:visible;enable-background:new    ;" width="512" height="512" xlink:href="C:\Users\Windows10\Desktop\shield_outline.png"  transform="matrix(4.296875e-02 0 0 4.296875e-02 1 1)">
</image>
</svg>
