<?xml version="1.0" encoding="utf-8"?>
<!-- Generator: Adobe Illustrator 24.0.1, SVG Export Plug-In . SVG Version: 6.00 Build 0)  -->
<svg version="1.1" id="Layer_1" xmlns="http://www.w3.org/2000/svg" xmlns:xlink="http://www.w3.org/1999/xlink" x="0px" y="0px"
	 viewBox="0 0 24 24" style="enable-background:new 0 0 24 24;" xml:space="preserve">
<style type="text/css">
	.st0{fill:#FFFFFF;stroke:#000000;stroke-miterlimit:10;}
</style>
<polygon class="st0" points="18.4,18.8 9.5,23.9 0.7,18.8 0.7,8.6 9.5,3.5 18.4,8.6 "/>
<polygon class="st0" points="15,16.8 9.5,20 4.1,16.8 4.1,10.5 9.5,7.4 15,10.5 "/>
<g transform="translate(0.000000,1130.000000) scale(0.100000,-0.100000)">
	<path d="M127.1,11163c0,0.1-0.1,0.2-0.3,0.2c-0.1,0.1-3.9,2.3-8.5,5.1c-9.5,5.6-20.9,12.4-31.6,18.8c-5.9,3.5-7.4,4.4-7.5,4.4
		c-0.2,0-0.2,0-0.3-0.1l-0.2-0.1l-0.3-27.9l-0.3-27.9l0.1-0.1c0.3-0.2,0.4-0.2,1.5,0.5c0.6,0.3,3.9,2.2,7.3,4.1
		c17.7,10,39.8,22.4,39.9,22.5C127.1,11162.5,127.2,11162.8,127.1,11163z"/>
</g>
</svg>
