<?xml version="1.0" encoding="utf-8"?>
<!-- Generator: Adobe Illustrator 24.0.1, SVG Export Plug-In . SVG Version: 6.00 Build 0)  -->
<svg version="1.1" xmlns="http://www.w3.org/2000/svg" xmlns:xlink="http://www.w3.org/1999/xlink" x="0px" y="0px"
	 viewBox="0 0 24 24" style="enable-background:new 0 0 24 24;" xml:space="preserve">
<style type="text/css">
	.st0{fill:#FFFFFF;}
</style>
<g id="Layer_1" focusable="false">
	<g>
		<path d="M14,13h-3v3H9v-3H6v-2h3V8h2v3h3V13z M17,6H3v12h14v-6.4l4,1.8V8.6l-4,1.8V6 M18,5v3.8L22,7v8l-4-1.8V19H2V5H18L18,5z"/>
	</g>
	<rect x="2" y="5" width="16" height="14"/>
	<rect x="17.7" y="8.9" width="3.3" height="4"/>
	<rect x="20.1" y="8.5" transform="matrix(-1 -1.224647e-16 1.224647e-16 -1 41.4194 21.8916)" width="1.3" height="5"/>
</g>
<g id="Layer_2">
	<rect x="9" y="8.1" class="st0" width="2" height="8"/>
	<rect x="6" y="11.1" class="st0" width="8" height="2"/>
</g>
</svg>
