<?xml version="1.0" encoding="utf-8"?>
<!-- Generator: Adobe Illustrator 24.0.1, SVG Export Plug-In . SVG Version: 6.00 Build 0)  -->
<svg version="1.1" id="Layer_1" xmlns="http://www.w3.org/2000/svg" xmlns:xlink="http://www.w3.org/1999/xlink" x="0px" y="0px"
	 viewBox="0 0 1200 800" style="enable-background:new 0 0 1200 800;" xml:space="preserve">
<style type="text/css">
	.st0{fill:#FF0000;}
	.st1{fill:#FFFFFF;}
</style>
<path class="st0" d="M1144.1,124.7c-13-49.1-51.5-87.8-100.2-100.9C955.4,0,600.9,0,600.9,0S246.3,0,157.9,23.8
	C109.1,37,70.7,75.6,57.7,124.7C34,213.7,34,399.4,34,399.4S34,585,57.7,674c13,49.1,51.5,87.8,100.2,100.9
	c88.4,23.8,442.9,23.8,442.9,23.8s354.5,0,442.9-23.8c48.8-13.1,87.2-51.8,100.2-100.9c23.7-89,23.7-274.7,23.7-274.7
	S1167.7,213.7,1144.1,124.7"/>
<path class="st1" d="M484.9,568l296.3-168.6L484.9,230.8V568z"/>
</svg>
